<?xml version="1.0" encoding="utf-8"?>
<!-- Generator: Adobe Illustrator 22.0.1, SVG Export Plug-In . SVG Version: 6.00 Build 0)  -->
<svg version="1.1" id="Layer_1" xmlns="http://www.w3.org/2000/svg" xmlns:xlink="http://www.w3.org/1999/xlink" x="0px" y="0px"
	 viewBox="0 0 581.7 158.9" style="enable-background:new 0 0 581.7 158.9;" xml:space="preserve">
<style type="text/css">
	.st0{fill:#FFFFFF;}
	.st1{fill:url(#SVGID_1_);}
	.st2{fill:url(#SVGID_2_);}
	.st3{fill:url(#SVGID_3_);}
</style>
<title>18_Criteo_Brand_Logo</title>
<g id="Layer_2_1_">
	<g id="Layer_1-2">
		<path class="st0" d="M117.5,157.8h-15.8V63.4h15.8V75c5.6-8,15-12.6,26-12.6c1.9,0,3.8,0.1,5.6,0.4l1.2,0.2v16.9l-1.7-0.4
			c-2.8-0.6-5.6-0.9-8.5-0.8c-13.3,0-22.6,9.8-22.6,23.8L117.5,157.8z"/>
		<path class="st0" d="M301.3,157.6c15.6,0,26.9-4.9,36.5-15.7l0.8-0.9l-10.1-10.4l-1,1c-7.2,7.6-13.8,12-26.3,12
			c-17.6,0-29.1-11.3-30.2-29.6h71.2l0.1-1.3c0.2-2.6,0.2-5.5,0.2-5.7c0-12.9-4-24.6-11.2-33.1c-7.6-9-18.1-13.7-30.4-13.7
			c-27,0-45.8,20.5-45.8,50v0.7C255.1,138.9,273.7,157.6,301.3,157.6z M272,100c1.6-13.8,14.3-24.8,29-24.8
			c13.7,0,24.9,11,25.5,24.8H272z"/>
		<rect x="165.7" y="63.4" class="st0" width="15.8" height="94.4"/>
		<path class="st0" d="M235.8,158.9c-4.9,0-12-0.5-17.7-4.8c-6.2-4.7-9.3-12.9-9.3-24.4V41.5h15.8v21.8h20.6v14.9h-20.6v51.4
			c0,11.9,4.2,14.3,11,14.3c2.7,0.1,5.4-0.1,8.1-0.5l1.6-0.2v14.6l-1,0.2C241.5,158.7,238.7,159,235.8,158.9z"/>
		<path class="st0" d="M401,158.9c12.8,0.1,25.1-5,34.1-14c9.3-9.4,14.4-22.2,14.2-35.4c0.2-13.2-4.9-26-14.2-35.4
			c-18.9-18.6-49.3-18.6-68.2,0c-9.3,9.4-14.4,22.2-14.2,35.4c-0.2,13.2,4.9,26,14.2,35.4C376,154,388.2,159,401,158.9z M401,75.2
			c8.8-0.1,17.2,3.5,23.3,9.8c5.9,6.3,9.2,15.1,9.2,24.6s-3.3,18.3-9.2,24.6c-12.5,12.8-33.1,13.1-45.9,0.6
			c-0.2-0.2-0.4-0.4-0.6-0.6c-5.9-6.3-9.2-15.1-9.2-24.6s3.3-18.3,9.2-24.6C383.8,78.6,392.2,75.1,401,75.2z"/>
		<path class="st0" d="M48.7,158.9c-12.9,0.1-25.2-4.9-34.4-14C5,135.5-0.2,122.8,0,109.6c-0.2-13.2,5-26,14.3-35.4
			c9.1-9.1,21.5-14.1,34.4-14c13.8,0,25.8,4.8,34.6,13.9l0.8,0.9l-9.7,11.5l-1-1.1C67,78.7,58.5,75.2,48.7,75.2
			C39.8,75,31.3,78.6,25.1,85c-6,6.3-9.3,15.1-9.3,24.6s3.3,18.3,9.3,24.6c6.1,6.4,14.6,9.9,23.5,9.8c9.8,0,18.4-3.5,24.7-10.2
			l1-1.1l9.7,11.5l-0.8,0.9C74.4,154.1,62.5,158.9,48.7,158.9z"/>
		
			<linearGradient id="SVGID_1_" gradientUnits="userSpaceOnUse" x1="73.6" y1="147.8197" x2="619.56" y2="147.8197" gradientTransform="matrix(1 0 0 -1 0 160)">
			<stop  offset="0" style="stop-color:#F68C21"/>
			<stop  offset="1" style="stop-color:#F16324"/>
		</linearGradient>
		<path class="st1" d="M173.6,24.4c-6.7,0-12.2-5.4-12.3-12.1c0-6.7,5.4-12.2,12.1-12.3s12.2,5.4,12.3,12.1c0,0,0,0.1,0,0.1
			C185.7,18.9,180.3,24.3,173.6,24.4z"/>
		
			<linearGradient id="SVGID_2_" gradientUnits="userSpaceOnUse" x1="73.6" y1="13.2497" x2="619.56" y2="13.2497" gradientTransform="matrix(1 0 0 -1 0 160)">
			<stop  offset="0" style="stop-color:#F68C21"/>
			<stop  offset="1" style="stop-color:#F16324"/>
		</linearGradient>
		<path class="st2" d="M569.6,158.9c-6.7,0-12.2-5.4-12.3-12.1c0-6.7,5.4-12.2,12.1-12.3s12.2,5.4,12.3,12.1c0,0,0,0.1,0,0.1
			C581.7,153.4,576.3,158.9,569.6,158.9z"/>
		
			<linearGradient id="SVGID_3_" gradientUnits="userSpaceOnUse" x1="73.6" y1="80.76" x2="619.56" y2="80.76" gradientTransform="matrix(1 0 0 -1 0 160)">
			<stop  offset="0" style="stop-color:#F68C21"/>
			<stop  offset="1" style="stop-color:#F16324"/>
		</linearGradient>
		<path class="st3" d="M535.1,141h-32.2c-8.3,0-15.1-6.8-15.1-15.1V31.1c0-13.6-11-24.7-24.7-24.7H208.3v11h253.5
			c8.3,0,15.1,6.7,15.1,15.1c0,0,0,0,0,0v94.8c0,13.6,11,24.7,24.7,24.7h33.6V141z"/>
	</g>
</g>
</svg>
